<svg width="54" height="54" viewBox="0 0 54 54" fill="none" xmlns="http://www.w3.org/2000/svg">
<path fill-rule="evenodd" clip-rule="evenodd" d="M27 0.75C12.5039 0.75 0.75 12.7969 0.75 27.668C0.75 39.5625 8.27344 49.6406 18.7031 53.2031C20.0156 53.4492 20.4961 52.6172 20.4961 51.9023C20.4961 51.2578 20.4727 49.5703 20.4609 47.3203C13.1602 48.9492 11.6133 43.7109 11.6133 43.7109C10.418 40.6055 8.69531 39.7734 8.69531 39.7734C6.31641 38.0977 8.87109 38.1328 8.87109 38.1328C11.5078 38.3203 12.8906 40.9102 12.8906 40.9102C15.2344 45.0234 19.0313 43.8398 20.5313 43.1484C20.7656 41.4141 21.4453 40.2187 22.1953 39.5508C16.3711 38.8711 10.2422 36.5625 10.2422 26.25C10.2422 23.3086 11.2617 20.9062 12.9375 19.0312C12.668 18.3516 11.7656 15.6094 13.1953 11.9062C13.1953 11.9062 15.3984 11.1797 20.4141 14.6602C22.5117 14.0625 24.75 13.7695 26.9883 13.7578C29.2148 13.7695 31.4648 14.0625 33.5625 14.6602C38.5781 11.1797 40.7695 11.9062 40.7695 11.9062C42.1992 15.6094 41.2969 18.3516 41.0273 19.0312C42.7031 20.918 43.7227 23.3203 43.7227 26.25C43.7227 36.5859 37.582 38.8594 31.7344 39.5273C32.6719 40.3594 33.5156 42 33.5156 44.5078C33.5156 48.1055 33.4805 51.0117 33.4805 51.8906C33.4805 52.6055 33.9492 53.4492 35.2852 53.1797C45.7383 49.6289 53.25 39.5508 53.25 27.668C53.25 12.7969 41.4961 0.75 27 0.75Z" fill="white"/>
</svg>
