<svg width="60" height="60" viewBox="0 0 60 60" fill="none" xmlns="http://www.w3.org/2000/svg">
<path d="M29.9999 58.8814C45.9506 58.8814 58.8813 45.9508 58.8813 30C58.8813 14.0492 45.9506 1.11853 29.9999 1.11853C14.0491 1.11853 1.11841 14.0492 1.11841 30C1.11841 45.9508 14.0491 58.8814 29.9999 58.8814Z" fill="white"/>
<path d="M45 15H15C12.9373 15 11.25 16.6882 11.25 18.75V41.25C11.25 43.3118 12.9373 45 15 45H45C47.0618 45 48.75 43.3118 48.75 41.25V18.75C48.75 16.6882 47.0618 15 45 15ZM45 41.25H41.25V24.7504L30 31.875L18.75 24.7504V41.25H15V18.75H17.2504L30 26.6254L42.7496 18.75H45V41.25Z" fill="black"/>
</svg>
