<svg width="60" height="60" viewBox="0 0 60 60" fill="none" xmlns="http://www.w3.org/2000/svg">
<path fill-rule="evenodd" clip-rule="evenodd" d="M30 60C46.5685 60 60 46.5685 60 30C60 13.4315 46.5685 0 30 0C13.4315 0 0 13.4315 0 30C0 46.5685 13.4315 60 30 60Z" fill="#FFFEFE"/>
<path fill-rule="evenodd" clip-rule="evenodd" d="M21.8832 43.8232V25.5244H16.2275V43.8232H21.8832ZM21.8832 19.0382C21.8495 17.4007 20.7581 16.1539 18.9851 16.1539C17.2117 16.1539 16.053 17.4007 16.053 19.0382C16.053 20.6402 17.178 21.9231 18.9173 21.9231H18.951C20.7581 21.9231 21.8832 20.6402 21.8832 19.0382ZM31.1101 43.8232V33.3974C31.1101 32.8394 31.1505 32.2815 31.3145 31.8837C31.7631 30.7683 32.784 29.6137 34.4983 29.6137C36.744 29.6137 38.1524 30.8882 38.1524 33.3974V43.8232H43.8462V33.1184C43.8462 27.384 40.7851 24.7157 36.702 24.7157C33.3542 24.7157 31.8847 26.5874 31.0687 27.8613L31.1096 25.4139H25.4256C25.5073 27.1657 25.4256 43.8232 25.4256 43.8232H31.1101Z" fill="black"/>
</svg>
